Simulation
nRows=30
nColumns=15
endheader
time  TH_x TH_y TH_z SC_y  SC_z  SC_x  AC_y  AC_z  AC_x  GH_y  GH_z  GH_yy  EL_x  PS_y
2.6910411985018725  0.000000  0.000000  0.000000  -23.62400906107975  4.292130934957547  -5.456573914241368  59.87379358471195  10.026323030810401  8.69018299926935  -40.64551151524916  5.623521684596263  66.87605298624165  15.895722850905756  120.000000
2.7312059925093632  0.000000  0.000000  0.000000  -23.43778293384542  4.391465093691202  -5.259157137510225  60.32165366344553  10.29137370502859  8.962412009515004  -51.185277948093784  4.077762496050746  79.75745784088932  16.640801145165877  120.000000
2.771370786516854  0.000000  0.000000  0.000000  -23.40458835900301  4.556931585272951  -5.001897488748411  60.67112654089968  10.548045182919141  9.194739082016309  -71.16258247977957  2.8827968657194925  101.87311461801724  17.298974232374416  120.000000
2.8115355805243447  0.000000  0.000000  0.000000  -23.485735378269958  4.768700851115013  -4.713849584504661  60.924847085261746  10.775239757353154  9.382895474203032  -105.02043356537098  2.4142246983422457  137.67148027803154  17.846143620966405  120.000000
2.851700374531835  0.000000  0.000000  0.000000  -23.643830221231454  5.009723161385401  -4.4134821280049925  61.0921267507815  10.962165690165818  9.526914095626022  -136.7072778365607  2.912506458874538  171.1131603881369  18.269010523369385  120.000000
2.8918651685393257  0.000000  0.000000  0.000000  -23.848817865791936  5.265523399788555  -4.109993629091075  61.18513316118671  11.10684847049974  9.630240985146658  -154.06372035476812  3.9461037923992737  -169.94908036135007  18.564038976947774  120.000000
2.9320299625468165  0.000000  0.000000  0.000000  -24.077216676385067  5.52515124328818  -3.807128042784504  61.216221323811915  11.212415989758851  9.698041683828883  -162.84904977853483  5.132009403768816  -159.74552417161192  18.737055878955115  120.000000
2.972194756554307  0.000000  0.000000  0.000000  -24.31100116392004  5.78077334024545  -3.507083211489664  61.1973291964514  11.28370893978852  9.735160144033435  -167.64597740478231  6.322243311896694  -153.68444488794108  18.801523706323508  120.000000
3.012359550561798  0.000000  0.000000  0.000000  -24.537197691522785  6.026747723547983  -3.2120516262205885  61.13902671619001  11.325162203401634  9.746125612286031  -170.4562833506887  7.459431333506115  -149.75562149107836  18.77680843925277  120.000000
3.0525243445692882  0.000000  0.000000  0.000000  -24.747204932893723  6.258872475079993  -2.924573430846561  61.050618985319424  11.340361751715456  9.735119860543922  -172.1793636206478  8.51668675358787  -147.0517929638699  18.685803614133043  120.000000
3.092689138576779  0.000000  0.000000  0.000000  -24.93559698205797  6.474201197968855  -2.6474158301077564  60.94046715310977  11.332197568151381  9.705762507568437  -173.26143142159546  9.47894523387913  -145.11932527087038  18.552080208852693  120.000000
3.1328539325842697  0.000000  0.000000  0.000000  -25.099183547556496  6.670938178171129  -2.3833683775920798  60.81560635912821  11.302982024720196  9.661362109574341  -173.9419817563222  10.336714215857432  -143.71165209116273  18.397064255888008  120.000000
3.1730187265917604  0.000000  0.000000  0.000000  -25.23655469050611  6.848042249261564  -2.135144423963958  60.68188180623429  11.254523445109957  9.60488820015004  -174.35818616410205  11.08348943190677  -142.6847854926834  18.237596907346813  120.000000
3.2131835205992507  0.000000  0.000000  0.000000  -25.34750376790961  7.005002614464444  -1.905308957462855  60.5441262398819  11.18816791828689  9.539169827497526  -174.59276485401907  11.714685322117926  -141.94941844498288  18.084803355975442  120.000000
3.2533483146067415  0.000000  0.000000  0.000000  -25.432527554087304  7.141662392042072  -1.696289075714912  60.40675061371162  11.10490992055619  9.466731603309816  -174.699058775093  12.227023161538922  -141.445890873962  17.94414629870134  120.000000
3.293513108614232  0.000000  0.000000  0.000000  -25.492583415903606  7.258061914895449  -1.510289826921092  60.27369643328735  11.005456521739712  9.389958940363195  -174.7116923351889  12.618252406377477  -141.13350826519994  17.81663504433633  120.000000
3.333677902621723  0.000000  0.000000  0.000000  -25.528911359225322  7.354341495002328  -1.3492587991608693  60.14837019144819  10.890328971984525  9.31112324952294  -174.65245836234388  12.88693810797054  -140.98472310479397  17.700447003068717  120.000000
3.3738426966292137  0.000000  0.000000  0.000000  -25.542853675491646  7.430642435300652  -1.2148376160273004  60.03356635740072  10.759969894676818  9.23244227670959  -174.53327406188086  13.032327365718148  -140.98213608073254  17.592675458204884  120.000000
3.414007490636704  0.000000  0.000000  0.000000  -25.53574249742817  7.487096782938198  -1.1083944883976642  59.9315962124464  10.614831961356602  9.155988310253466  -174.3589154399795  13.054221361991832  -141.1158573172606  17.490702931008496  120.000000
3.4541722846441947  0.000000  0.000000  0.000000  -25.508870568539816  7.523793575575129  -1.0310262048925147  59.84430079655633  10.455414661858148  9.083704788413248  -174.12777485776618  12.952960193742777  -141.3827230955098  17.392968214558575  120.000000
3.4943370786516854  0.000000  0.000000  0.000000  -25.463459796995554  7.5407701876755056  -0.9836364167702596  59.77315423344574  10.282282939630228  9.017334697850215  -173.8325196785617  12.72941593647939  -141.7857184802466  17.298937416692816  120.000000
3.534501872659176  0.000000  0.000000  0.000000  -25.40068568179464  7.537970982201869  -0.9669339385475183  59.71923081043183  10.09607163585714  8.958465360963938  -173.45904233499266  12.385052181725547  -142.33499092231457  17.208515577375383  120.000000
3.574666666666667  0.000000  0.000000  0.000000  -25.32166896413257  7.515286810469812  -0.9814807707988356  59.683270656252176  9.89751628436705  8.908465386613013  -172.98543854963899  11.921969699511623  -143.04895050620806  17.121131341801007  120.000000
3.614831460674157  0.000000  0.000000  0.000000  -25.227445379515576  7.472537749810988  -1.0276671950809513  59.66564407676917  9.68747599179578  8.868529017939814  -172.3787503118657  11.343037359220306  -143.95746429952735  17.034788963841955  120.000000
3.654996254681648  0.000000  0.000000  0.000000  -25.118931083683485  7.409513948241859  -1.1057128269795629  59.66634642558035  9.466989697318985  8.839629841993714  -171.59007117074455  10.652042653188413  -145.10681829328698  16.9454066788708  120.000000
3.6951610486891386  0.000000  0.000000  0.000000  -24.99683794859965  7.326092480943943  -1.2156111829335763  59.684912212154295  9.23733577626611  8.822558540369828  -170.54502757337335  9.853981300380084  -146.56917274277814  16.846638001380594  120.000000
3.7353258426966294  0.000000  0.000000  0.000000  -24.861428610861605  7.222150980623382  -1.3570916837728895  59.72040723353452  9.000155612201246  8.817799879287335  -169.12655588380798  8.955543546868531  -148.45980369574727  16.730274809508785  120.000000
3.7754906367041197  0.000000  0.000000  0.000000  -24.712441859855563  7.097765538572694  -1.5295685462457629  59.77131902761612  8.757392244489356  8.825706389398663  -167.14319121658093  7.966123766049752  -150.96878197487567  16.58708503409014  120.000000
3.8156554307116104  0.000000  0.000000  0.000000  -24.54878005198134  6.953209086700962  -1.7321835763989981  59.83557844015924  8.5113779662539  8.846415910490983  -164.26352908916203  6.899650490223265  -154.42650093166236  16.40786823712373  120.000000
3.855820224719101  0.000000  0.000000  0.000000  -24.368354945466702  6.789123059266552  -1.9637239569503337  59.910366094617515  8.265034726833507  8.879637780795191  -159.8692379461258  5.778729327527908  -159.45061698367246  16.184353391524887  120.000000
